<svg xmlns="http://www.w3.org/2000/svg" xmlns:xlink="http://www.w3.org/1999/xlink" width="1080" zoomAndPan="magnify" viewBox="0 0 810 809.999993" height="1080" preserveAspectRatio="xMidYMid meet" version="1.0"><defs><clipPath id="85c92aab34"><path d="M 332 30.804688 L 336 30.804688 L 336 46 L 332 46 Z M 332 30.804688 " clip-rule="nonzero"/></clipPath><clipPath id="a0c2cb8068"><path d="M 315 54 L 354 54 L 354 72.054688 L 315 72.054688 Z M 315 54 " clip-rule="nonzero"/></clipPath><clipPath id="5e74462c4e"><path d="M 313.546875 50 L 354.796875 50 L 354.796875 53 L 313.546875 53 Z M 313.546875 50 " clip-rule="nonzero"/></clipPath><clipPath id="06999b3eb0"><path d="M 44.152344 6.824219 L 765.847656 6.824219 L 765.847656 802 L 44.152344 802 Z M 44.152344 6.824219 " clip-rule="nonzero"/></clipPath><clipPath id="2615758935"><path d="M 765.847656 6.824219 L 765.847656 803.175781 L 405 678.746094 L 44.152344 803.175781 L 44.152344 6.824219 Z M 765.847656 6.824219 " clip-rule="nonzero"/></clipPath></defs><path fill="#ffffff" d="M 341.996094 45.574219 C 342.144531 45.574219 342.285156 45.546875 342.421875 45.492188 C 342.558594 45.433594 342.675781 45.355469 342.78125 45.25 C 342.886719 45.148438 342.964844 45.027344 343.023438 44.890625 C 343.078125 44.753906 343.105469 44.613281 343.105469 44.46875 L 343.105469 33.382812 C 343.105469 33.234375 343.078125 33.09375 343.023438 32.957031 C 342.964844 32.820312 342.886719 32.703125 342.78125 32.597656 C 342.679688 32.492188 342.558594 32.414062 342.421875 32.359375 C 342.285156 32.300781 342.144531 32.273438 341.996094 32.273438 C 341.851562 32.273438 341.710938 32.300781 341.574219 32.359375 C 341.4375 32.414062 341.316406 32.492188 341.214844 32.597656 C 341.109375 32.703125 341.03125 32.820312 340.972656 32.957031 C 340.917969 33.09375 340.890625 33.234375 340.890625 33.382812 L 340.890625 44.46875 C 340.890625 44.613281 340.917969 44.753906 340.972656 44.890625 C 341.03125 45.027344 341.109375 45.148438 341.214844 45.25 C 341.320312 45.355469 341.4375 45.433594 341.574219 45.492188 C 341.710938 45.546875 341.851562 45.574219 341.996094 45.574219 Z M 341.996094 45.574219 " fill-opacity="1" fill-rule="nonzero"/><path fill="#ffffff" d="M 326.476562 45.574219 C 326.625 45.574219 326.765625 45.546875 326.902344 45.492188 C 327.039062 45.433594 327.15625 45.355469 327.261719 45.25 C 327.367188 45.148438 327.445312 45.027344 327.503906 44.890625 C 327.558594 44.753906 327.585938 44.613281 327.585938 44.46875 L 327.585938 33.382812 C 327.585938 33.234375 327.558594 33.09375 327.503906 32.957031 C 327.445312 32.820312 327.367188 32.703125 327.261719 32.597656 C 327.15625 32.492188 327.039062 32.414062 326.902344 32.359375 C 326.765625 32.300781 326.625 32.273438 326.476562 32.273438 C 326.332031 32.273438 326.191406 32.300781 326.054688 32.359375 C 325.917969 32.414062 325.796875 32.492188 325.695312 32.597656 C 325.589844 32.703125 325.511719 32.820312 325.453125 32.957031 C 325.398438 33.09375 325.371094 33.234375 325.371094 33.382812 L 325.371094 44.46875 C 325.371094 44.613281 325.398438 44.753906 325.453125 44.890625 C 325.511719 45.027344 325.589844 45.148438 325.695312 45.25 C 325.796875 45.355469 325.917969 45.433594 326.054688 45.492188 C 326.191406 45.546875 326.332031 45.574219 326.476562 45.574219 Z M 326.476562 45.574219 " fill-opacity="1" fill-rule="nonzero"/><path fill="#ffffff" d="M 349.640625 41.230469 C 348.359375 39 346.675781 37.136719 344.585938 35.636719 L 344.585938 44.46875 C 344.585938 44.808594 344.519531 45.140625 344.386719 45.457031 C 344.257812 45.773438 344.070312 46.054688 343.828125 46.296875 C 343.585938 46.539062 343.304688 46.726562 342.988281 46.855469 C 342.671875 46.988281 342.339844 47.054688 341.996094 47.054688 C 341.65625 47.054688 341.324219 46.988281 341.007812 46.855469 C 340.691406 46.726562 340.410156 46.539062 340.167969 46.296875 C 339.925781 46.054688 339.738281 45.773438 339.609375 45.457031 C 339.476562 45.140625 339.410156 44.808594 339.410156 44.46875 L 339.410156 33.382812 C 339.410156 33.285156 339.417969 33.191406 339.425781 33.097656 C 338.695312 32.875 337.949219 32.699219 337.195312 32.578125 L 337.195312 44.097656 C 337.195312 44.488281 337.121094 44.867188 336.96875 45.230469 C 336.820312 45.589844 336.605469 45.910156 336.328125 46.1875 C 336.050781 46.464844 335.730469 46.679688 335.371094 46.828125 C 335.007812 46.980469 334.628906 47.054688 334.238281 47.054688 C 333.847656 47.054688 333.46875 46.980469 333.105469 46.828125 C 332.746094 46.679688 332.425781 46.464844 332.148438 46.1875 C 331.871094 45.910156 331.65625 45.589844 331.507812 45.230469 C 331.355469 44.867188 331.28125 44.488281 331.28125 44.097656 L 331.28125 32.578125 C 330.527344 32.699219 329.78125 32.875 329.046875 33.097656 C 329.058594 33.191406 329.066406 33.285156 329.066406 33.382812 L 329.066406 44.46875 C 329.066406 44.808594 329 45.140625 328.867188 45.457031 C 328.738281 45.773438 328.550781 46.054688 328.308594 46.296875 C 328.066406 46.539062 327.785156 46.726562 327.46875 46.855469 C 327.152344 46.988281 326.820312 47.054688 326.476562 47.054688 C 326.136719 47.054688 325.804688 46.988281 325.488281 46.855469 C 325.171875 46.726562 324.890625 46.539062 324.648438 46.296875 C 324.40625 46.054688 324.21875 45.773438 324.089844 45.457031 C 323.957031 45.140625 323.890625 44.808594 323.890625 44.46875 L 323.890625 35.636719 C 322.796875 36.417969 321.808594 37.3125 320.917969 38.320312 C 320.03125 39.324219 319.265625 40.417969 318.628906 41.601562 C 317.988281 42.78125 317.492188 44.019531 317.136719 45.316406 C 316.777344 46.609375 316.574219 47.929688 316.519531 49.269531 L 351.957031 49.269531 C 351.839844 46.402344 351.066406 43.722656 349.640625 41.230469 Z M 349.640625 41.230469 " fill-opacity="1" fill-rule="nonzero"/><g clip-path="url(#85c92aab34)"><path fill="#ffffff" d="M 334.238281 45.574219 C 334.433594 45.574219 334.621094 45.539062 334.804688 45.460938 C 334.984375 45.386719 335.144531 45.28125 335.28125 45.140625 C 335.421875 45.003906 335.527344 44.84375 335.601562 44.664062 C 335.679688 44.480469 335.714844 44.292969 335.714844 44.097656 L 335.714844 32.273438 C 335.714844 32.078125 335.679688 31.886719 335.605469 31.707031 C 335.527344 31.527344 335.421875 31.367188 335.285156 31.226562 C 335.144531 31.089844 334.984375 30.984375 334.804688 30.90625 C 334.621094 30.832031 334.433594 30.796875 334.238281 30.796875 C 334.042969 30.796875 333.855469 30.832031 333.671875 30.90625 C 333.492188 30.984375 333.332031 31.089844 333.191406 31.226562 C 333.054688 31.367188 332.949219 31.527344 332.871094 31.707031 C 332.796875 31.886719 332.761719 32.078125 332.761719 32.273438 L 332.761719 44.097656 C 332.761719 44.292969 332.796875 44.480469 332.875 44.664062 C 332.949219 44.84375 333.054688 45.003906 333.195312 45.140625 C 333.332031 45.28125 333.492188 45.386719 333.671875 45.460938 C 333.855469 45.539062 334.042969 45.574219 334.238281 45.574219 Z M 334.238281 45.574219 " fill-opacity="1" fill-rule="nonzero"/></g><g clip-path="url(#a0c2cb8068)"><path fill="#ffffff" d="M 350.496094 55.855469 L 350.496094 54.445312 L 344.480469 54.445312 C 344.390625 55.054688 344.25 55.652344 344.054688 56.238281 C 343.859375 56.824219 343.613281 57.386719 343.316406 57.929688 C 343.019531 58.46875 342.679688 58.980469 342.292969 59.460938 C 341.90625 59.941406 341.476562 60.382812 341.011719 60.785156 C 340.546875 61.191406 340.046875 61.550781 339.515625 61.863281 C 338.984375 62.179688 338.429688 62.445312 337.851562 62.660156 C 337.273438 62.875 336.683594 63.039062 336.074219 63.148438 C 335.46875 63.257812 334.855469 63.3125 334.238281 63.3125 C 333.621094 63.3125 333.007812 63.257812 332.402344 63.148438 C 331.792969 63.039062 331.203125 62.875 330.625 62.660156 C 330.046875 62.445312 329.492188 62.179688 328.960938 61.863281 C 328.429688 61.550781 327.929688 61.191406 327.464844 60.785156 C 327 60.382812 326.570312 59.941406 326.183594 59.460938 C 325.796875 58.980469 325.453125 58.46875 325.160156 57.929688 C 324.863281 57.386719 324.617188 56.824219 324.421875 56.238281 C 324.226562 55.652344 324.085938 55.054688 323.996094 54.445312 L 317.980469 54.445312 L 317.980469 55.855469 C 317.980469 56.074219 317.898438 56.253906 317.734375 56.402344 L 315.167969 58.722656 L 316.683594 62.382812 L 321.503906 62.136719 C 321.722656 62.125 321.910156 62.195312 322.066406 62.351562 L 324.851562 65.140625 C 325.007812 65.292969 325.078125 65.480469 325.070312 65.699219 L 324.824219 70.519531 L 328.484375 72.039062 L 331.71875 68.453125 C 331.863281 68.292969 332.046875 68.210938 332.265625 68.210938 L 336.210938 68.210938 C 336.429688 68.210938 336.613281 68.292969 336.757812 68.453125 L 339.992188 72.039062 L 343.652344 70.523438 L 343.40625 65.699219 C 343.394531 65.480469 343.46875 65.292969 343.621094 65.140625 L 346.410156 62.351562 C 346.566406 62.195312 346.753906 62.125 346.972656 62.136719 L 351.792969 62.382812 L 353.308594 58.722656 L 350.742188 56.402344 C 350.578125 56.257812 350.496094 56.074219 350.496094 55.855469 Z M 325.355469 62.894531 L 324.308594 61.851562 L 325.355469 60.804688 L 326.398438 61.851562 Z M 334.976562 66.269531 L 333.5 66.269531 L 333.5 64.789062 L 334.976562 64.789062 Z M 343.121094 62.894531 L 342.078125 61.851562 L 343.121094 60.804688 L 344.167969 61.851562 Z M 343.121094 62.894531 " fill-opacity="1" fill-rule="nonzero"/></g><g clip-path="url(#5e74462c4e)"><path fill="#ffffff" d="M 353.824219 50.75 L 314.652344 50.75 C 314.507812 50.75 314.367188 50.777344 314.230469 50.832031 C 314.09375 50.890625 313.972656 50.96875 313.871094 51.074219 C 313.765625 51.175781 313.6875 51.296875 313.628906 51.433594 C 313.574219 51.570312 313.546875 51.710938 313.546875 51.859375 C 313.546875 52.003906 313.574219 52.144531 313.628906 52.28125 C 313.6875 52.417969 313.765625 52.539062 313.871094 52.640625 C 313.972656 52.746094 314.09375 52.824219 314.230469 52.882812 C 314.367188 52.9375 314.507812 52.964844 314.652344 52.964844 L 353.824219 52.964844 C 353.96875 52.964844 354.109375 52.9375 354.246094 52.882812 C 354.382812 52.824219 354.503906 52.746094 354.605469 52.640625 C 354.710938 52.539062 354.789062 52.417969 354.847656 52.28125 C 354.902344 52.144531 354.929688 52.003906 354.929688 51.859375 C 354.929688 51.710938 354.902344 51.570312 354.847656 51.433594 C 354.789062 51.296875 354.710938 51.175781 354.605469 51.074219 C 354.503906 50.96875 354.382812 50.890625 354.246094 50.832031 C 354.109375 50.777344 353.96875 50.75 353.824219 50.75 Z M 353.824219 50.75 " fill-opacity="1" fill-rule="nonzero"/></g><g clip-path="url(#06999b3eb0)"><g clip-path="url(#2615758935)"><path fill="#081a40" d="M 44.152344 6.824219 L 765.847656 6.824219 L 765.847656 801.816406 L 44.152344 801.816406 Z M 44.152344 6.824219 " fill-opacity="1" fill-rule="nonzero"/></g></g></svg>